<?xml version="1.0" encoding="UTF-8"?>
<svg id="Layer_2" data-name="Layer 2" xmlns="http://www.w3.org/2000/svg" viewBox="0 0 26.4 5.34">
  <defs>
    <style>
      .cls-1 {
        fill: #fff;
        stroke-width: 0px;
      }
    </style>
  </defs>
  <g id="Layer_2-2" data-name="Layer 2">
    <g id="Layer_1-2" data-name="Layer 1-2">
      <g>
        <path class="cls-1" d="m.68,5.34h-.68V1.65h.68v.31c.11-.15.34-.39.79-.39.21,0,.55.05.82.32.18.18.36.48.36.96,0,.55-.24.84-.38.97-.18.17-.46.31-.82.31-.17,0-.51-.03-.77-.39v1.59h0Zm.16-3.01c-.15.13-.23.29-.23.52s.09.41.22.52c.09.08.23.16.45.16s.37-.09.46-.17c.15-.13.21-.33.21-.51s-.07-.38-.21-.51c-.12-.11-.3-.17-.46-.17-.18,0-.32.05-.44.16Z"/>
        <path class="cls-1" d="m3.95,3.7l-1.15-2.05h.79l.75,1.37.67-1.37h.77l-1.94,3.69h-.77l.89-1.64h0Z"/>
        <path class="cls-1" d="m6.11,1.65h.68v.36c.11-.21.25-.31.3-.33.11-.07.24-.11.4-.11.12,0,.21.03.29.06l-.09.63c-.09-.06-.18-.09-.32-.09-.13,0-.32.03-.45.19-.13.16-.13.37-.13.54v1.16h-.68V1.65Z"/>
        <path class="cls-1" d="m10.3,1.91c.24.22.41.55.41.95s-.17.72-.41.94c-.21.19-.52.34-.97.34s-.77-.15-.97-.34c-.24-.22-.41-.55-.41-.94s.17-.73.41-.95c.21-.19.52-.34.97-.34s.77.15.97.34Zm-.3.95c0-.38-.29-.68-.68-.68s-.68.31-.68.68.28.68.68.68.68-.31.68-.68Z"/>
        <path class="cls-1" d="m13.84,2.22c-.16-.15-.32-.16-.4-.16-.16,0-.26.08-.26.19,0,.06.03.16.22.22l.16.05c.19.06.47.16.61.35.07.1.12.24.12.4,0,.22-.07.43-.27.61-.19.18-.43.26-.72.26-.5,0-.79-.24-.94-.4l.36-.41c.13.16.33.28.53.28s.33-.09.33-.26c0-.15-.12-.21-.21-.25l-.16-.06c-.17-.06-.37-.14-.52-.29-.11-.12-.18-.27-.18-.46,0-.23.11-.43.25-.54.19-.15.43-.17.63-.17.18,0,.46.02.77.26l-.33.4v-.02Z"/>
        <path class="cls-1" d="m15.45,2.23v1.83h-.68v-1.83h-.27v-.58h.27v-.83h.68v.83h.47v.58h-.47Z"/>
        <path class="cls-1" d="m16.96,1.65v1.36c0,.13.01.3.15.42.08.07.22.12.35.12s.26-.05.35-.12c.13-.12.15-.29.15-.42v-1.36h.68v1.48c0,.22-.03.51-.29.74-.22.2-.58.27-.87.27s-.65-.08-.87-.27c-.27-.23-.29-.52-.29-.74v-1.48h.68-.04Z"/>
        <path class="cls-1" d="m21.11,0h.68v4.06h-.68v-.31c-.24.35-.57.39-.74.39-.74,0-1.23-.58-1.23-1.29s.48-1.28,1.2-1.28c.18,0,.55.03.77.39,0,0,0-1.96,0-1.96Zm-1.27,2.85c0,.38.28.69.67.69s.67-.3.67-.69-.28-.68-.67-.68-.67.29-.67.68Z"/>
        <path class="cls-1" d="m22.77.22c.22,0,.41.18.41.41s-.18.41-.41.41-.41-.18-.41-.41.18-.41.41-.41Zm.34,1.43v2.41h-.68V1.65h.68Z"/>
        <path class="cls-1" d="m25.99,1.91c.24.22.41.55.41.95s-.17.72-.41.94c-.21.19-.52.34-.97.34s-.77-.15-.97-.34c-.24-.22-.41-.55-.41-.94s.17-.73.41-.95c.21-.19.52-.34.97-.34s.77.15.97.34Zm-.29.95c0-.38-.29-.68-.68-.68s-.68.31-.68.68.28.68.68.68.68-.31.68-.68Z"/>
      </g>
    </g>
  </g>
</svg>